<svg width="28" height="28" viewBox="0 0 28 28" fill="none" xmlns="http://www.w3.org/2000/svg">
<path d="M14 5.6C13.6287 5.6 13.2726 5.7475 13.0101 6.01005C12.7475 6.2726 12.6 6.6287 12.6 7V21C12.6 21.3713 12.7475 21.7274 13.0101 21.99C13.2726 22.2525 13.6287 22.4 14 22.4C14.3713 22.4 14.7274 22.2525 14.9899 21.99C15.2525 21.7274 15.4 21.3713 15.4 21V7C15.4 6.6287 15.2525 6.2726 14.9899 6.01005C14.7274 5.7475 14.3713 5.6 14 5.6ZM7 14C6.6287 14 6.2726 14.1475 6.01005 14.4101C5.7475 14.6726 5.6 15.0287 5.6 15.4V21C5.6 21.3713 5.7475 21.7274 6.01005 21.99C6.2726 22.2525 6.6287 22.4 7 22.4C7.3713 22.4 7.7274 22.2525 7.98995 21.99C8.2525 21.7274 8.4 21.3713 8.4 21V15.4C8.4 15.0287 8.2525 14.6726 7.98995 14.4101C7.7274 14.1475 7.3713 14 7 14ZM21 11.2C20.6287 11.2 20.2726 11.3475 20.01 11.6101C19.7475 11.8726 19.6 12.2287 19.6 12.6V21C19.6 21.3713 19.7475 21.7274 20.01 21.99C20.2726 22.2525 20.6287 22.4 21 22.4C21.3713 22.4 21.7274 22.2525 21.99 21.99C22.2525 21.7274 22.4 21.3713 22.4 21V12.6C22.4 12.2287 22.2525 11.8726 21.99 11.6101C21.7274 11.3475 21.3713 11.2 21 11.2ZM23.8 0H4.2C3.08609 0 2.0178 0.442499 1.23015 1.23015C0.442499 2.0178 0 3.08609 0 4.2V23.8C0 24.9139 0.442499 25.9822 1.23015 26.7698C2.0178 27.5575 3.08609 28 4.2 28H23.8C24.9139 28 25.9822 27.5575 26.7698 26.7698C27.5575 25.9822 28 24.9139 28 23.8V4.2C28 3.08609 27.5575 2.0178 26.7698 1.23015C25.9822 0.442499 24.9139 0 23.8 0ZM25.2 23.8C25.2 24.1713 25.0525 24.5274 24.7899 24.7899C24.5274 25.0525 24.1713 25.2 23.8 25.2H4.2C3.8287 25.2 3.4726 25.0525 3.21005 24.7899C2.9475 24.5274 2.8 24.1713 2.8 23.8V4.2C2.8 3.8287 2.9475 3.4726 3.21005 3.21005C3.4726 2.9475 3.8287 2.8 4.2 2.8H23.8C24.1713 2.8 24.5274 2.9475 24.7899 3.21005C25.0525 3.4726 25.2 3.8287 25.2 4.2V23.8Z" fill="white"/>
</svg>
