<svg width="14" height="12" viewBox="0 0 14 12" fill="none" xmlns="http://www.w3.org/2000/svg">
<path d="M1.125 11.2937C0.94167 11.1104 0.850003 10.8771 0.850003 10.5937C0.850003 10.3104 0.94167 10.0771 1.125 9.89373L5 5.99373L1.125 2.09373C0.94167 1.9104 0.846003 1.68107 0.838003 1.40573C0.829337 1.13107 0.925003 0.893731 1.125 0.693731C1.30834 0.510398 1.54167 0.418732 1.825 0.418732C2.10834 0.418732 2.34167 0.510398 2.525 0.693731L7.125 5.29373C7.225 5.39373 7.296 5.50206 7.338 5.61873C7.37934 5.7354 7.4 5.8604 7.4 5.99373C7.4 6.12706 7.37934 6.25206 7.338 6.36873C7.296 6.4854 7.225 6.59373 7.125 6.69373L2.525 11.2937C2.34167 11.4771 2.11234 11.5727 1.837 11.5807C1.56234 11.5894 1.325 11.4937 1.125 11.2937ZM7.725 11.2937C7.54167 11.1104 7.45 10.8771 7.45 10.5937C7.45 10.3104 7.54167 10.0771 7.725 9.89373L11.6 5.99373L7.725 2.09373C7.54167 1.9104 7.44567 1.68107 7.437 1.40573C7.429 1.13107 7.525 0.893731 7.725 0.693731C7.90834 0.510398 8.14167 0.418732 8.425 0.418732C8.70834 0.418732 8.94167 0.510398 9.125 0.693731L13.725 5.29373C13.825 5.39373 13.8957 5.50206 13.937 5.61873C13.979 5.7354 14 5.8604 14 5.99373C14 6.12706 13.979 6.25206 13.937 6.36873C13.8957 6.4854 13.825 6.59373 13.725 6.69373L9.125 11.2937C8.94167 11.4771 8.71267 11.5727 8.438 11.5807C8.16267 11.5894 7.925 11.4937 7.725 11.2937Z" fill="white"/>
</svg>
