<svg width="28" height="28" viewBox="0 0 28 28" fill="none" xmlns="http://www.w3.org/2000/svg">
<path d="M27.44 9.52051H0.560002C0.411481 9.52051 0.269043 9.46151 0.164023 9.35649C0.0590028 9.25147 2.95596e-06 9.10903 2.95596e-06 8.96051V5.60051C-0.000368722 5.48609 0.0343184 5.3743 0.0993961 5.28019C0.164474 5.18608 0.256818 5.11416 0.364003 5.07411L13.804 0.0341165C13.9308 -0.0107211 14.0692 -0.0107211 14.196 0.0341165L27.636 5.07411C27.7432 5.11416 27.8355 5.18608 27.9006 5.28019C27.9657 5.3743 28.0003 5.48609 28 5.60051V8.96051C28 9.10903 27.941 9.25147 27.836 9.35649C27.7309 9.46151 27.5885 9.52051 27.44 9.52051ZM1.12 8.40051H26.88V5.98691L14 1.15972L1.12 5.98691V8.40051Z" fill="#424242"/>
<path d="M26.3198 11.7589H1.67987C1.53135 11.7589 1.38891 11.6999 1.28389 11.5949C1.17887 11.4899 1.11987 11.3474 1.11987 11.1989V8.95893C1.11987 8.8104 1.17887 8.66797 1.28389 8.56295C1.38891 8.45793 1.53135 8.39893 1.67987 8.39893H26.3198C26.4684 8.39893 26.6108 8.45793 26.7158 8.56295C26.8208 8.66797 26.8798 8.8104 26.8798 8.95893V11.1989C26.8798 11.3474 26.8208 11.4899 26.7158 11.5949C26.6108 11.6999 26.4684 11.7589 26.3198 11.7589ZM2.23987 10.6389H25.7598V9.51892H2.23987V10.6389Z" fill="#424242"/>
<path d="M15.12 26.8814H0.559999C0.411478 26.8814 0.26904 26.8224 0.16402 26.7174C0.0589999 26.6124 0 26.4699 0 26.3214V23.5214C0 23.3729 0.0589999 23.2305 0.16402 23.1254C0.26904 23.0204 0.411478 22.9614 0.559999 22.9614H15.12C15.2685 22.9614 15.4109 23.0204 15.516 23.1254C15.621 23.2305 15.68 23.3729 15.68 23.5214V26.3214C15.68 26.4699 15.621 26.6124 15.516 26.7174C15.4109 26.8224 15.2685 26.8814 15.12 26.8814ZM1.12 25.7614H14.56V24.0814H1.12V25.7614Z" fill="#424242"/>
<path d="M15.1199 24.0792H1.67987C1.53135 24.0792 1.38891 24.0202 1.28389 23.9152C1.17887 23.8102 1.11987 23.6678 1.11987 23.5192V21.2792C1.11987 21.1307 1.17887 20.9883 1.28389 20.8833C1.38891 20.7782 1.53135 20.7192 1.67987 20.7192H15.1199C15.2684 20.7192 15.4108 20.7782 15.5158 20.8833C15.6209 20.9883 15.6799 21.1307 15.6799 21.2792V23.5192C15.6799 23.6678 15.6209 23.8102 15.5158 23.9152C15.4108 24.0202 15.2684 24.0792 15.1199 24.0792ZM2.23987 22.9592H14.5599V21.8392H2.23987V22.9592Z" fill="#424242"/>
<path d="M7.27999 14.0011H3.91999C3.47443 14.0011 3.04711 13.8241 2.73205 13.5091C2.41699 13.194 2.23999 12.7667 2.23999 12.3211V11.2011C2.23999 11.0526 2.29899 10.9102 2.40401 10.8051C2.50903 10.7001 2.65147 10.6411 2.79999 10.6411H8.39998C8.54851 10.6411 8.69094 10.7001 8.79596 10.8051C8.90098 10.9102 8.95998 11.0526 8.95998 11.2011V12.3211C8.95998 12.7667 8.78298 13.194 8.46792 13.5091C8.15286 13.8241 7.72555 14.0011 7.27999 14.0011ZM3.35999 11.7611V12.3211C3.35999 12.4696 3.41899 12.6121 3.52401 12.7171C3.62903 12.8221 3.77147 12.8811 3.91999 12.8811H7.27999C7.42851 12.8811 7.57094 12.8221 7.67597 12.7171C7.78099 12.6121 7.83998 12.4696 7.83998 12.3211V11.7611H3.35999Z" fill="#424242"/>
<path d="M8.39998 21.841H2.79999C2.65147 21.841 2.50903 21.782 2.40401 21.6769C2.29899 21.5719 2.23999 21.4295 2.23999 21.281V20.161C2.23999 19.7154 2.41699 19.2881 2.73205 18.973C3.04711 18.658 3.47443 18.481 3.91999 18.481H7.27999C7.72555 18.481 8.15286 18.658 8.46792 18.973C8.78298 19.2881 8.95998 19.7154 8.95998 20.161V21.281C8.95998 21.4295 8.90098 21.5719 8.79596 21.6769C8.69094 21.782 8.54851 21.841 8.39998 21.841ZM3.35999 20.721H7.83998V20.161C7.83998 20.0124 7.78099 19.87 7.67597 19.765C7.57094 19.66 7.42851 19.601 7.27999 19.601H3.91999C3.77147 19.601 3.62903 19.66 3.52401 19.765C3.41899 19.87 3.35999 20.0124 3.35999 20.161V20.721Z" fill="#424242"/>
<path d="M7.27986 19.5994H3.91986C3.77134 19.5994 3.6289 19.5404 3.52388 19.4354C3.41886 19.3303 3.35986 19.1879 3.35986 19.0394V13.4394C3.35986 13.2909 3.41886 13.1484 3.52388 13.0434C3.6289 12.9384 3.77134 12.8794 3.91986 12.8794H7.27986C7.42838 12.8794 7.57082 12.9384 7.67584 13.0434C7.78086 13.1484 7.83986 13.2909 7.83986 13.4394V19.0394C7.83986 19.1879 7.78086 19.3303 7.67584 19.4354C7.57082 19.5404 7.42838 19.5994 7.27986 19.5994ZM4.47986 18.4794H6.71986V13.9994H4.47986V18.4794Z" fill="#424242"/>
<path d="M24.08 14.0011H20.72C20.2745 14.0011 19.8472 13.8241 19.5321 13.5091C19.217 13.194 19.04 12.7667 19.04 12.3211V11.2011C19.04 11.0526 19.099 10.9102 19.2041 10.8051C19.3091 10.7001 19.4515 10.6411 19.6 10.6411H25.2C25.3486 10.6411 25.491 10.7001 25.596 10.8051C25.701 10.9102 25.76 11.0526 25.76 11.2011V12.3211C25.76 12.7667 25.583 13.194 25.268 13.5091C24.9529 13.8241 24.5256 14.0011 24.08 14.0011ZM20.16 11.7611V12.3211C20.16 12.4696 20.219 12.6121 20.3241 12.7171C20.4291 12.8221 20.5715 12.8811 20.72 12.8811H24.08C24.2286 12.8811 24.371 12.8221 24.476 12.7171C24.581 12.6121 24.64 12.4696 24.64 12.3211V11.7611H20.16Z" fill="#424242"/>
<path d="M24.0799 20.1594H20.7199C20.5714 20.1594 20.429 20.1004 20.3239 19.9954C20.2189 19.8903 20.1599 19.7479 20.1599 19.5994V13.4394C20.1599 13.2909 20.2189 13.1484 20.3239 13.0434C20.429 12.9384 20.5714 12.8794 20.7199 12.8794H24.0799C24.2284 12.8794 24.3709 12.9384 24.4759 13.0434C24.5809 13.1484 24.6399 13.2909 24.6399 13.4394V19.5994C24.6399 19.7479 24.5809 19.8903 24.4759 19.9954C24.3709 20.1004 24.2284 20.1594 24.0799 20.1594ZM21.2799 19.0394H23.5199V13.9994H21.2799V19.0394Z" fill="#424242"/>
<path d="M14 7.83877C13.4462 7.83877 12.9048 7.67455 12.4444 7.36688C11.9839 7.05921 11.625 6.62191 11.4131 6.11028C11.2012 5.59865 11.1457 5.03566 11.2538 4.49252C11.3618 3.94937 11.6285 3.45046 12.0201 3.05887C12.4116 2.66728 12.9106 2.40061 13.4537 2.29257C13.9968 2.18453 14.5598 2.23998 15.0715 2.45191C15.5831 2.66383 16.0204 3.02272 16.3281 3.48317C16.6357 3.94363 16.7999 4.48498 16.7999 5.03877C16.7999 5.78137 16.5049 6.49356 15.9798 7.01867C15.4547 7.54377 14.7426 7.83877 14 7.83877ZM14 3.35877C13.6677 3.35877 13.3429 3.4573 13.0666 3.6419C12.7903 3.8265 12.575 4.08888 12.4478 4.39586C12.3207 4.70284 12.2874 5.04063 12.3522 5.36652C12.4171 5.69241 12.5771 5.99176 12.812 6.22671C13.047 6.46166 13.3463 6.62166 13.6722 6.68649C13.9981 6.75131 14.3359 6.71804 14.6429 6.59088C14.9498 6.46373 15.2122 6.2484 15.3968 5.97213C15.5814 5.69585 15.6799 5.37104 15.6799 5.03877C15.6799 4.59321 15.5029 4.16589 15.1879 3.85083C14.8728 3.53577 14.4455 3.35877 14 3.35877Z" fill="#424242"/>
<path d="M26.3198 27.9995H16.2398C15.7942 27.9995 15.3669 27.8225 15.0519 27.5075C14.7368 27.1924 14.5598 26.7651 14.5598 26.3195V20.7195C14.5598 20.274 14.7368 19.8467 15.0519 19.5316C15.3669 19.2166 15.7942 19.0396 16.2398 19.0396H26.3198C26.7654 19.0396 27.1927 19.2166 27.5077 19.5316C27.8228 19.8467 27.9998 20.274 27.9998 20.7195V26.3195C27.9998 26.7651 27.8228 27.1924 27.5077 27.5075C27.1927 27.8225 26.7654 27.9995 26.3198 27.9995ZM16.2398 20.1595C16.0913 20.1595 15.9489 20.2185 15.8438 20.3236C15.7388 20.4286 15.6798 20.571 15.6798 20.7195V26.3195C15.6798 26.4681 15.7388 26.6105 15.8438 26.7155C15.9489 26.8205 16.0913 26.8795 16.2398 26.8795H26.3198C26.4683 26.8795 26.6108 26.8205 26.7158 26.7155C26.8208 26.6105 26.8798 26.4681 26.8798 26.3195V20.7195C26.8798 20.571 26.8208 20.4286 26.7158 20.3236C26.6108 20.2185 26.4683 20.1595 26.3198 20.1595H16.2398Z" fill="#424242"/>
<path d="M21.28 25.7617C20.837 25.7617 20.4039 25.6304 20.0356 25.3842C19.6672 25.1381 19.3801 24.7883 19.2105 24.3789C19.041 23.9696 18.9967 23.5193 19.0831 23.0847C19.1695 22.6502 19.3829 22.2511 19.6961 21.9378C20.0094 21.6246 20.4085 21.4112 20.843 21.3248C21.2776 21.2383 21.7279 21.2827 22.1372 21.4522C22.5466 21.6218 22.8964 21.9089 23.1425 22.2773C23.3887 22.6456 23.52 23.0787 23.52 23.5217C23.52 24.1158 23.284 24.6856 22.864 25.1057C22.4439 25.5257 21.8741 25.7617 21.28 25.7617ZM21.28 22.4017C21.0585 22.4017 20.842 22.4674 20.6578 22.5905C20.4736 22.7136 20.3301 22.8885 20.2453 23.0931C20.1605 23.2978 20.1383 23.523 20.1816 23.7402C20.2248 23.9575 20.3314 24.1571 20.4881 24.3137C20.6447 24.4703 20.8443 24.577 21.0615 24.6202C21.2788 24.6634 21.504 24.6413 21.7086 24.5565C21.9133 24.4717 22.0882 24.3282 22.2113 24.144C22.3344 23.9598 22.4 23.7433 22.4 23.5217C22.4 23.2247 22.282 22.9398 22.072 22.7298C21.862 22.5197 21.5771 22.4017 21.28 22.4017Z" fill="#424242"/>
<path d="M25.1999 24.0814C25.5092 24.0814 25.7599 23.8307 25.7599 23.5214C25.7599 23.2121 25.5092 22.9614 25.1999 22.9614C24.8906 22.9614 24.6399 23.2121 24.6399 23.5214C24.6399 23.8307 24.8906 24.0814 25.1999 24.0814Z" fill="#424242"/>
<path d="M17.36 24.0814C17.6693 24.0814 17.92 23.8307 17.92 23.5214C17.92 23.2121 17.6693 22.9614 17.36 22.9614C17.0508 22.9614 16.8 23.2121 16.8 23.5214C16.8 23.8307 17.0508 24.0814 17.36 24.0814Z" fill="#424242"/>
<path d="M13.9999 19.0394C13.8514 19.0394 13.709 18.9804 13.604 18.8754C13.4989 18.7703 13.4399 18.6279 13.4399 18.4794V13.4394C13.4399 13.2909 13.4989 13.1484 13.604 13.0434C13.709 12.9384 13.8514 12.8794 13.9999 12.8794C14.1485 12.8794 14.2909 12.9384 14.3959 13.0434C14.5009 13.1484 14.5599 13.2909 14.5599 13.4394V18.4794C14.5599 18.6279 14.5009 18.7703 14.3959 18.8754C14.2909 18.9804 14.1485 19.0394 13.9999 19.0394Z" fill="#424242"/>
<path d="M13.9999 19.0411C13.9262 19.0415 13.8531 19.0274 13.7849 18.9995C13.7166 18.9716 13.6546 18.9306 13.6023 18.8787L11.9223 17.1987C11.87 17.1464 11.8286 17.0845 11.8004 17.0162C11.7721 16.948 11.7576 16.8749 11.7576 16.8011C11.7576 16.7272 11.7721 16.6541 11.8004 16.5859C11.8286 16.5177 11.87 16.4557 11.9223 16.4035C11.9745 16.3512 12.0365 16.3098 12.1047 16.2816C12.1729 16.2533 12.246 16.2388 12.3199 16.2388C12.3937 16.2388 12.4668 16.2533 12.535 16.2816C12.6033 16.3098 12.6652 16.3512 12.7175 16.4035L13.9999 17.6915L15.2823 16.4035C15.3345 16.3512 15.3965 16.3098 15.4647 16.2816C15.5329 16.2533 15.606 16.2388 15.6799 16.2388C15.7537 16.2388 15.8268 16.2533 15.895 16.2816C15.9633 16.3098 16.0252 16.3512 16.0775 16.4035C16.1297 16.4557 16.1711 16.5177 16.1993 16.5859C16.2276 16.6541 16.2421 16.7272 16.2421 16.8011C16.2421 16.8749 16.2276 16.948 16.1993 17.0162C16.1711 17.0845 16.1297 17.1464 16.0775 17.1987L14.3975 18.8787C14.3451 18.9306 14.2831 18.9716 14.2148 18.9995C14.1466 19.0274 14.0736 19.0415 13.9999 19.0411Z" fill="#424242"/>
</svg>
