<svg width="28" height="28" viewBox="0 0 28 28" fill="none" xmlns="http://www.w3.org/2000/svg">
<path d="M14 15.68C13.6089 16.2 13.2796 16.7638 13.0189 17.36H9.8C9.57722 17.36 9.36356 17.4485 9.20603 17.606C9.0485 17.7636 8.96 17.9772 8.96 18.2V19.7904C9.2288 20.9429 10.3118 21.6328 12.3894 21.8064C12.4656 22.3966 12.6034 22.969 12.796 23.5144C9.64656 23.3688 7.7336 22.2365 7.2968 20.0446L7.28 19.88V18.2C7.28 17.5317 7.5455 16.8907 8.01809 16.4181C8.49068 15.9455 9.13165 15.68 9.8 15.68H14ZM26.4454 14.5734C26.0247 14.1815 25.565 13.8336 25.0734 13.5352C25.1317 13.3974 25.1742 13.2507 25.2 13.0962V11.48C25.2 11.2572 25.1115 11.0436 24.954 10.886C24.7964 10.7285 24.5828 10.64 24.36 10.64H18.48C18.48 10.0509 18.3792 9.48416 18.1933 8.95888L24.36 8.96C25.0283 8.96 25.6693 9.2255 26.1419 9.69809C26.6145 10.1707 26.88 10.8117 26.88 11.48V13.1622L26.871 13.2832C26.8096 13.7358 26.6653 14.1731 26.4454 14.5734ZM8.68672 8.95888L2.52 8.96C1.85165 8.96 1.21068 9.2255 0.738091 9.69809C0.265499 10.1707 0 10.8117 0 11.48V13.16L0.0156799 13.3246C0.48608 15.6778 2.65888 16.8101 6.23504 16.8101L6.43664 16.8078C6.75625 16.0374 7.33021 15.3998 8.06288 15.0013C7.53872 15.0864 6.93168 15.1301 6.23504 15.1301C3.41712 15.1301 1.9936 14.4155 1.68 13.0704V11.48C1.68 11.2572 1.7685 11.0436 1.92603 10.886C2.08356 10.7285 2.29722 10.64 2.52 10.64H8.4L8.40784 10.3477C8.43584 9.86272 8.53216 9.3968 8.68784 8.95888H8.68672ZM17.36 10.64C17.36 9.60035 16.947 8.60328 16.2119 7.86814C15.4767 7.133 14.4796 6.72 13.44 6.72C12.4004 6.72 11.4033 7.133 10.6681 7.86814C9.933 8.60328 9.52 9.60035 9.52 10.64C9.52 11.6796 9.933 12.6767 10.6681 13.4119C11.4033 14.147 12.4004 14.56 13.44 14.56C14.4796 14.56 15.4767 14.147 16.2119 13.4119C16.947 12.6767 17.36 11.6796 17.36 10.64ZM11.2 10.64C11.2 10.0459 11.436 9.47616 11.8561 9.05608C12.2762 8.636 12.8459 8.4 13.44 8.4C14.0341 8.4 14.6038 8.636 15.0239 9.05608C15.444 9.47616 15.68 10.0459 15.68 10.64C15.68 11.2341 15.444 11.8038 15.0239 12.2239C14.6038 12.644 14.0341 12.88 13.44 12.88C12.8459 12.88 12.2762 12.644 11.8561 12.2239C11.436 11.8038 11.2 11.2341 11.2 10.64ZM24.64 3.92C24.64 2.88035 24.227 1.88328 23.4919 1.14814C22.7567 0.412999 21.7596 0 20.72 0C19.6804 0 18.6833 0.412999 17.9481 1.14814C17.213 1.88328 16.8 2.88035 16.8 3.92C16.8 4.95965 17.213 5.95672 17.9481 6.69186C18.6833 7.427 19.6804 7.84 20.72 7.84C21.7596 7.84 22.7567 7.427 23.4919 6.69186C24.227 5.95672 24.64 4.95965 24.64 3.92ZM18.48 3.92C18.48 3.32592 18.716 2.75616 19.1361 2.33608C19.5562 1.916 20.1259 1.68 20.72 1.68C21.3141 1.68 21.8838 1.916 22.3039 2.33608C22.724 2.75616 22.96 3.32592 22.96 3.92C22.96 4.51408 22.724 5.08384 22.3039 5.50392C21.8838 5.924 21.3141 6.16 20.72 6.16C20.1259 6.16 19.5562 5.924 19.1361 5.50392C18.716 5.08384 18.48 4.51408 18.48 3.92ZM10.08 3.92C10.08 2.88035 9.667 1.88328 8.93186 1.14814C8.19672 0.412999 7.19965 0 6.16 0C5.12035 0 4.12328 0.412999 3.38814 1.14814C2.653 1.88328 2.24 2.88035 2.24 3.92C2.24 4.95965 2.653 5.95672 3.38814 6.69186C4.12328 7.427 5.12035 7.84 6.16 7.84C7.19965 7.84 8.19672 7.427 8.93186 6.69186C9.667 5.95672 10.08 4.95965 10.08 3.92ZM3.92 3.92C3.92 3.32592 4.156 2.75616 4.57608 2.33608C4.99616 1.916 5.56592 1.68 6.16 1.68C6.75409 1.68 7.32384 1.916 7.74392 2.33608C8.164 2.75616 8.4 3.32592 8.4 3.92C8.4 4.51408 8.164 5.08384 7.74392 5.50392C7.32384 5.924 6.75409 6.16 6.16 6.16C5.56592 6.16 4.99616 5.924 4.57608 5.50392C4.156 5.08384 3.92 4.51408 3.92 3.92ZM20.72 28C22.6508 28 24.5025 27.233 25.8677 25.8677C27.233 24.5025 28 22.6508 28 20.72C28 18.7892 27.233 16.9375 25.8677 15.5723C24.5025 14.207 22.6508 13.44 20.72 13.44C18.7892 13.44 16.9375 14.207 15.5723 15.5723C14.207 16.9375 13.44 18.7892 13.44 20.72C13.44 22.6508 14.207 24.5025 15.5723 25.8677C16.9375 27.233 18.7892 28 20.72 28ZM20.72 15.68C20.8685 15.68 21.011 15.739 21.116 15.844C21.221 15.949 21.28 16.0915 21.28 16.24V20.16H25.2C25.3485 20.16 25.491 20.219 25.596 20.324C25.701 20.429 25.76 20.5715 25.76 20.72C25.76 20.8685 25.701 21.011 25.596 21.116C25.491 21.221 25.3485 21.28 25.2 21.28H21.28V25.2C21.28 25.3485 21.221 25.491 21.116 25.596C21.011 25.701 20.8685 25.76 20.72 25.76C20.5715 25.76 20.429 25.701 20.324 25.596C20.219 25.491 20.16 25.3485 20.16 25.2V21.28H16.24C16.0915 21.28 15.949 21.221 15.844 21.116C15.739 21.011 15.68 20.8685 15.68 20.72C15.68 20.5715 15.739 20.429 15.844 20.324C15.949 20.219 16.0915 20.16 16.24 20.16H20.16V16.24C20.16 16.0915 20.219 15.949 20.324 15.844C20.429 15.739 20.5715 15.68 20.72 15.68Z" fill="#424242"/>
</svg>
