<svg width="28" height="28" viewBox="0 0 28 28" fill="none" xmlns="http://www.w3.org/2000/svg">
<path d="M3.99998 4C3.99998 1.79086 5.79084 0 7.99998 0C10.2091 0 12 1.79086 12 4C12 5.28952 11.3898 6.43652 10.4424 7.168C10.4139 7.18902 10.3856 7.2103 10.3574 7.2318C9.69636 7.71486 8.88146 8 7.99998 8C5.79084 8 3.99998 6.20914 3.99998 4ZM7.99998 2C6.89542 2 5.99998 2.89544 5.99998 4C5.99998 5.10456 6.89542 6 7.99998 6C9.10454 6 9.99998 5.10456 9.99998 4C9.99998 2.89544 9.10454 2 7.99998 2Z" fill="#424242"/>
<path d="M17.5576 7.168C16.6102 6.43652 16 5.28952 16 4C16 1.79086 17.7909 0 20 0C22.2092 0 24 1.79086 24 4C24 6.20914 22.2092 8 20 8C19.1186 8 18.3036 7.71488 17.6425 7.23182C17.6144 7.2103 17.5861 7.18902 17.5576 7.168ZM20 2C18.8954 2 18 2.89544 18 4C18 5.10456 18.8954 6 20 6C21.1046 6 22 5.10456 22 4C22 2.89544 21.1046 2 20 2Z" fill="#424242"/>
<path d="M2.99996 10.0001H8.34142C8.1203 10.6256 8 11.2988 8 12.0001H2.99996C2.44774 12.0001 2 12.4478 2 13.0001C2 14.6339 2.64906 15.8455 3.6762 16.67C4.14848 17.049 4.71408 17.356 5.35344 17.5792C4.88904 18.0741 4.52422 18.6635 4.29094 19.3153C3.61102 19.0387 2.98196 18.6773 2.4243 18.2297C0.91794 17.0206 0 15.2322 0 13.0001C0 11.3433 1.34312 10.0001 2.99996 10.0001Z" fill="#424242"/>
<path d="M10.5351 10C10.1948 10.5883 10 11.2714 10 12C10 13.6871 11.0444 15.1302 12.522 15.7181C12.9792 15.9 13.4779 16 14 16C14.5221 16 15.0208 15.9 15.478 15.7181C16.9556 15.1302 18 13.6871 18 12C18 11.2714 17.8052 10.5883 17.4649 10C16.7733 8.8044 15.4806 8 14 8C12.5194 8 11.2267 8.8044 10.5351 10ZM13.5513 10.0505C13.6955 10.0175 13.8457 10 14 10C14.1543 10 14.3045 10.0175 14.4487 10.0505C15.3372 10.2542 16 11.0497 16 12C16 12.1543 15.9825 12.3045 15.9495 12.4487C15.7458 13.3372 14.9503 14 14 14C13.0497 14 12.2542 13.3372 12.0505 12.4487C12.0175 12.3045 12 12.1543 12 12C12 11.0497 12.6628 10.2542 13.5513 10.0505Z" fill="#424242"/>
<path d="M24.3239 16.67C23.8517 17.049 23.2861 17.356 22.6467 17.5792C23.1111 18.0741 23.4759 18.6635 23.7091 19.3153C24.3891 19.0387 25.0181 18.6773 25.5759 18.2297C27.0821 17.0206 28.0001 15.2322 28.0001 13.0001C28.0001 11.3432 26.6569 10.0001 25.0001 10.0001H19.6587C19.8797 10.6256 20.0001 11.2988 20.0001 12.0001H25.0001C25.5523 12.0001 26.0001 12.4478 26.0001 13.0001C26.0001 14.6339 25.3511 15.8455 24.3239 16.67Z" fill="#424242"/>
<path d="M19 18C20.2518 18 21.3244 18.7666 21.7742 19.856C21.9196 20.2086 22 20.595 22 21C22 23.2322 21.082 25.0206 19.5758 26.2296C18.0932 27.4196 16.1062 28 14 28C11.8938 28 9.90684 27.4196 8.4243 26.2296C6.91794 25.0206 6 23.2322 6 21C6 20.595 6.0803 20.2086 6.22584 19.856C6.67556 18.7666 7.74824 18 8.99996 18H19ZM19 20H8.99996C8.44774 20 8 20.4478 8 21C8 22.6338 8.64906 23.8454 9.6762 24.6698C10.7272 25.5134 12.2402 26 14 26C15.7598 26 17.2728 25.5134 18.3238 24.6698C19.351 23.8454 20 22.6338 20 21C20 20.4478 19.5522 20 19 20Z" fill="#424242"/>
</svg>
