<svg width="28" height="24" viewBox="0 0 28 24" fill="none" xmlns="http://www.w3.org/2000/svg">
<path d="M24.5 0.625C26.433 0.625 28 2.32259 28 4.41667V19.5833C28 21.6774 26.433 23.375 24.5 23.375H3.5C1.567 23.375 0 21.6774 0 19.5833V4.41667C0 2.32259 1.567 0.625 3.5 0.625H24.5ZM26.1514 3.66128L16.977 12.1797C15.2984 13.7384 12.7016 13.7384 11.023 12.1797L1.84863 3.66128C1.78475 3.86115 1.75 4.07611 1.75 4.3V19.7C1.75 20.7631 2.5335 21.625 3.5 21.625H24.5C25.4665 21.625 26.25 20.7631 26.25 19.7V4.3C26.25 4.07611 26.2153 3.86115 26.1514 3.66128ZM24.5 2.375H3.5C3.36039 2.375 3.22461 2.39298 3.09445 2.42695L12.2138 10.8973C13.221 11.8326 14.779 11.8326 15.7862 10.8973L24.9056 2.42695C24.7754 2.39298 24.6396 2.375 24.5 2.375Z" fill="#424242"/>
</svg>
