<svg width="28" height="24" viewBox="0 0 28 24" fill="none" xmlns="http://www.w3.org/2000/svg">
<path d="M3.8178 2.66619C2.7636 2.66619 1.9096 3.50199 1.9096 4.53379V19.4662C1.9096 20.498 2.7636 21.3338 3.8178 21.3338H24.1822C25.2364 21.3338 26.0904 20.498 26.0904 19.4662V4.53379C26.0904 3.50199 25.2364 2.66619 24.1822 2.66619H3.8178ZM24.1822 0.799988C26.2906 0.799988 28 2.47159 28 4.53379V19.4662C28 21.5284 26.2906 23.2 24.1822 23.2H3.8178C1.7094 23.2 0 21.5284 0 19.4662V4.53379C0 2.47159 1.7094 0.799988 3.8178 0.799988H24.1822ZM11.4338 16.3862H5.6C5.47597 16.3847 5.35286 16.4077 5.23772 16.4538C5.12258 16.5 5.01766 16.5684 4.92898 16.6551C4.8403 16.7419 4.76959 16.8452 4.7209 16.9593C4.6722 17.0734 4.64648 17.196 4.6452 17.32C4.6452 17.8352 5.0722 18.2538 5.6 18.2538H11.4338C11.5577 18.2551 11.6807 18.232 11.7957 18.1857C11.9106 18.1395 12.0154 18.0711 12.1039 17.9844C12.1924 17.8976 12.263 17.7943 12.3116 17.6804C12.3602 17.5664 12.3859 17.4439 12.3872 17.32C12.3859 17.1961 12.3602 17.0736 12.3116 16.9596C12.263 16.8456 12.1924 16.7423 12.1039 16.6556C12.0154 16.5689 11.9106 16.5005 11.7957 16.4543C11.6807 16.408 11.5577 16.3849 11.4338 16.3862ZM19.25 5.46619C17.1164 5.46619 15.379 7.13359 15.379 9.19999C15.379 10.2822 15.855 11.2552 16.6166 11.937C15.1746 12.7882 14.2128 14.3212 14.2128 16.0726C14.2128 16.5724 14.2912 17.0638 14.4438 17.5328C14.6048 18.0228 15.1424 18.2944 15.6436 18.1376C15.7619 18.1022 15.8719 18.0435 15.9673 17.9651C16.0627 17.8866 16.1415 17.79 16.1991 17.6808C16.2567 17.5716 16.2919 17.452 16.3028 17.329C16.3137 17.206 16.3 17.082 16.2624 16.9644C16.1688 16.6764 16.1216 16.3754 16.1224 16.0726C16.1224 14.4276 17.5182 13.0864 19.25 13.0864C20.9818 13.0864 22.379 14.4276 22.379 16.0726C22.379 16.3148 22.3496 16.5514 22.2908 16.781C22.2613 16.901 22.2559 17.0257 22.275 17.1477C22.2941 17.2698 22.3373 17.3869 22.402 17.4922C22.4668 17.5974 22.5518 17.6888 22.6521 17.7609C22.7525 17.833 22.8662 17.8844 22.9866 17.9122C23.2301 17.9733 23.4878 17.9362 23.7042 17.8089C23.9205 17.6816 24.0781 17.4743 24.143 17.2318C24.2396 16.8538 24.2872 16.466 24.2872 16.0726C24.2872 14.3212 23.3254 12.7882 21.8834 11.9342C22.645 11.2552 23.121 10.2822 23.121 9.19999C23.121 7.13359 21.385 5.46619 19.25 5.46619ZM11.4338 11.4862H5.6C5.47597 11.4847 5.35286 11.5077 5.23772 11.5538C5.12258 11.6 5.01766 11.6684 4.92898 11.7551C4.8403 11.8419 4.76959 11.9452 4.7209 12.0593C4.6722 12.1734 4.64648 12.296 4.6452 12.42C4.6452 12.9352 5.0722 13.3538 5.6 13.3538H11.4338C11.5577 13.3551 11.6807 13.332 11.7957 13.2857C11.9106 13.2395 12.0154 13.1711 12.1039 13.0844C12.1924 12.9976 12.263 12.8943 12.3116 12.7804C12.3602 12.6664 12.3859 12.5439 12.3872 12.42C12.3859 12.2961 12.3602 12.1736 12.3116 12.0596C12.263 11.9456 12.1924 11.8423 12.1039 11.7556C12.0154 11.6689 11.9106 11.6005 11.7957 11.5543C11.6807 11.508 11.5577 11.4849 11.4338 11.4862ZM19.25 7.33379C20.3378 7.33379 21.2128 8.17379 21.2128 9.19999C21.2128 10.2276 20.3378 11.0662 19.25 11.0662C18.1622 11.0662 17.2872 10.2262 17.2872 9.19999C17.2872 8.17239 18.1622 7.33379 19.25 7.33379ZM11.4338 6.58619H5.6C5.47597 6.58471 5.35286 6.6077 5.23772 6.65385C5.12258 6.69999 5.01766 6.76839 4.92898 6.85512C4.8403 6.94185 4.76959 7.04522 4.7209 7.1593C4.6722 7.27339 4.64648 7.39595 4.6452 7.51999C4.6452 8.03519 5.0722 8.45379 5.6 8.45379H11.4338C11.5577 8.45508 11.6807 8.43196 11.7957 8.38573C11.9106 8.3395 12.0154 8.27107 12.1039 8.18436C12.1924 8.09765 12.263 7.99435 12.3116 7.88035C12.3602 7.76636 12.3859 7.64391 12.3872 7.51999C12.3859 7.39607 12.3602 7.27362 12.3116 7.15963C12.263 7.04563 12.1924 6.94233 12.1039 6.85562C12.0154 6.76891 11.9106 6.70048 11.7957 6.65425C11.6807 6.60802 11.5577 6.5849 11.4338 6.58619Z" fill="#424242"/>
</svg>
