<svg width="28" height="28" viewBox="0 0 28 28" fill="none" xmlns="http://www.w3.org/2000/svg">
<path d="M13.961 28C13.0649 28 12.2208 27.5455 11.6234 26.7532L9.67532 24.1558C9.63636 24.1039 9.48052 24.039 9.41558 24.026H8.76623C3.35065 24.026 0 22.5584 0 15.2597V8.76623C0 3.02597 3.02597 0 8.76623 0H19.1558C24.8961 0 27.9221 3.02597 27.9221 8.76623V15.2597C27.9221 21 24.8961 24.026 19.1558 24.026H18.5065C18.4026 24.026 18.3117 24.0779 18.2468 24.1558L16.2987 26.7532C15.7013 27.5455 14.8571 28 13.961 28ZM8.76623 1.94805C4.11688 1.94805 1.94805 4.11688 1.94805 8.76623V15.2597C1.94805 21.1299 3.96104 22.0779 8.76623 22.0779H9.41558C10.0779 22.0779 10.8312 22.4545 11.2338 22.987L13.1818 25.5844C13.6364 26.1818 14.2857 26.1818 14.7403 25.5844L16.6883 22.987C17.1169 22.4156 17.7922 22.0779 18.5065 22.0779H19.1558C23.8052 22.0779 25.974 19.9091 25.974 15.2597V8.76623C25.974 4.11688 23.8052 1.94805 19.1558 1.94805H8.76623Z" fill="#424242"/>
<path d="M13.961 13.9608C13.2338 13.9608 12.6623 13.3764 12.6623 12.6621C12.6623 11.9478 13.2467 11.3634 13.961 11.3634C14.6753 11.3634 15.2597 11.9478 15.2597 12.6621C15.2597 13.3764 14.6883 13.9608 13.961 13.9608Z" fill="#424242"/>
<path d="M19.1558 13.9608C18.4286 13.9608 17.8571 13.3764 17.8571 12.6621C17.8571 11.9478 18.4416 11.3634 19.1558 11.3634C19.8701 11.3634 20.4545 11.9478 20.4545 12.6621C20.4545 13.3764 19.8831 13.9608 19.1558 13.9608Z" fill="#424242"/>
<path d="M8.76622 13.9608C8.03894 13.9608 7.46751 13.3764 7.46751 12.6621C7.46751 11.9478 8.05193 11.3634 8.76622 11.3634C9.4805 11.3634 10.0649 11.9478 10.0649 12.6621C10.0649 13.3764 9.49349 13.9608 8.76622 13.9608Z" fill="#424242"/>
</svg>
