<svg width="31" height="33" viewBox="0 0 31 33" fill="none" xmlns="http://www.w3.org/2000/svg">
<path d="M14.3749 32.0009C14.9806 31.9869 15.5618 31.7592 16.0158 31.358C16.4698 30.9568 16.7673 30.408 16.8556 29.8086H11.798C11.8888 30.4243 12.2002 30.986 12.6742 31.3893C13.1482 31.7925 13.7526 32.0099 14.3749 32.0009Z" fill="#5B5B5B"/>
<path d="M28.6536 26.0833L28.3267 25.7949C27.3992 24.9685 26.5874 24.0209 25.9132 22.9776C25.1769 21.5377 24.7356 19.9653 24.6152 18.3526V13.6027C24.6113 13.0257 24.5598 12.45 24.4613 11.8815C22.8326 11.5467 21.3696 10.6594 20.32 9.36979C19.2704 8.08015 18.6988 6.46742 18.7018 4.80465V4.19889C17.6979 3.70484 16.6193 3.37996 15.5095 3.23736V2.02583C15.5095 1.68539 15.3742 1.35889 15.1335 1.11816C14.8928 0.877428 14.5663 0.742188 14.2258 0.742188C13.8854 0.742188 13.5589 0.877428 13.3182 1.11816C13.0774 1.35889 12.9422 1.68539 12.9422 2.02583V3.28544C10.4573 3.63596 8.18318 4.87364 6.53958 6.76996C4.89599 8.66628 3.99394 11.0932 3.99997 13.6027V18.3526C3.87954 19.9653 3.43822 21.5377 2.7019 22.9776C2.03929 24.0183 1.24056 24.9658 0.326921 25.7949L0 26.0833V28.7948H28.6536V26.0833Z" fill="#5B5B5B"/>
<path d="M25.9132 9.6153C28.5684 9.6153 30.7209 7.46285 30.7209 4.80765C30.7209 2.15246 28.5684 0 25.9132 0C23.2581 0 21.1056 2.15246 21.1056 4.80765C21.1056 7.46285 23.2581 9.6153 25.9132 9.6153Z" fill="#FF0000"/>
</svg>
