<svg width="30" height="28" viewBox="0 0 30 28" fill="none" xmlns="http://www.w3.org/2000/svg">
<path fill-rule="evenodd" clip-rule="evenodd" d="M2.45006 2.10005C2.35723 2.10005 2.26821 2.13693 2.20257 2.20257C2.13693 2.26821 2.10005 2.35723 2.10005 2.45006V19.9505C2.10005 20.1437 2.25686 20.3005 2.45006 20.3005H5.95015C6.22864 20.3005 6.49571 20.4111 6.69263 20.6081C6.88955 20.805 7.00018 21.0721 7.00018 21.3505V25.8167L11.7981 21.0187C12.2573 20.5592 12.8803 20.3008 13.5299 20.3005H26.9507C27.0435 20.3005 27.1325 20.2636 27.1982 20.198C27.2638 20.1324 27.3007 20.0433 27.3007 19.9505V2.45006C27.3007 2.35723 27.2638 2.26821 27.1982 2.20257C27.1325 2.13693 27.0435 2.10005 26.9507 2.10005H2.45006ZM0 2.45006C0 1.09763 1.09763 0 2.45006 0H26.9507C28.3031 0 29.4007 1.09763 29.4007 2.45006V19.9505C29.4007 20.6003 29.1426 21.2235 28.6831 21.683C28.2237 22.1424 27.6005 22.4006 26.9507 22.4006H13.5299C13.4839 22.4005 13.4384 22.4095 13.3959 22.427C13.3533 22.4445 13.3147 22.4703 13.2821 22.5028L8.38201 27.4029C8.09674 27.688 7.73333 27.8822 7.33774 27.9608C6.94214 28.0395 6.5321 27.9991 6.15945 27.8448C5.78681 27.6904 5.46828 27.4291 5.24413 27.0938C5.01998 26.7584 4.90027 26.3642 4.90012 25.9609V22.4006H2.45006C1.80027 22.4006 1.17708 22.1424 0.717607 21.683C0.258131 21.2235 0 20.6003 0 19.9505V2.45006ZM14.7004 4.90012C14.9789 4.90012 15.2459 5.01075 15.4429 5.20767C15.6398 5.40459 15.7504 5.67167 15.7504 5.95015V11.5503C15.7504 11.8288 15.6398 12.0959 15.4429 12.2928C15.2459 12.4897 14.9789 12.6003 14.7004 12.6003C14.4219 12.6003 14.1548 12.4897 13.9579 12.2928C13.761 12.0959 13.6503 11.8288 13.6503 11.5503V5.95015C13.6503 5.67167 13.761 5.40459 13.9579 5.20767C14.1548 5.01075 14.4219 4.90012 14.7004 4.90012ZM14.7004 17.5004C15.0717 17.5004 15.4278 17.3529 15.6903 17.0904C15.9529 16.8278 16.1004 16.4717 16.1004 16.1004C16.1004 15.7291 15.9529 15.373 15.6903 15.1104C15.4278 14.8479 15.0717 14.7004 14.7004 14.7004C14.3291 14.7004 13.973 14.8479 13.7104 15.1104C13.4478 15.373 13.3003 15.7291 13.3003 16.1004C13.3003 16.4717 13.4478 16.8278 13.7104 17.0904C13.973 17.3529 14.3291 17.5004 14.7004 17.5004Z" fill="#424242"/>
</svg>
