<svg width="29" height="28" viewBox="0 0 29 28" fill="none" xmlns="http://www.w3.org/2000/svg">
<path d="M28.0392 8.81798L28.1873 7.37701C28.267 6.61381 27.669 5.95312 26.9001 5.95312H6.89737C6.16265 5.95312 5.57031 6.54546 5.57031 7.28019V8.81798H28.0392Z" fill="#AAB1BA"/>
<path d="M19.3705 19.2234H6.89724C6.00873 19.2234 5.2854 18.5 5.2854 17.6115V7.27981C5.2854 6.3913 6.00873 5.66797 6.89724 5.66797H26.9C27.3442 5.66797 27.7714 5.85592 28.0732 6.18626C28.3694 6.5166 28.5175 6.96086 28.4719 7.40511L28.0619 11.3806C27.8397 13.5335 26.8316 15.5213 25.2255 16.9736C23.6136 18.4203 21.5348 19.2234 19.3705 19.2234ZM6.89724 6.23752C6.32199 6.23752 5.85495 6.70456 5.85495 7.27981V17.6058C5.85495 18.1811 6.32199 18.6481 6.89724 18.6481H19.3705C23.5738 18.6481 27.0651 15.4985 27.4923 11.3179L27.9024 7.34246C27.9309 7.05768 27.8397 6.7786 27.6461 6.56217C27.4524 6.34574 27.1847 6.23183 26.9 6.23183H6.89724V6.23752Z" fill="#424242"/>
<path d="M25.8236 22.8514H7.56366C6.30495 22.8514 5.28545 21.8319 5.28545 20.5732V2.31328C5.28545 1.37922 4.54503 0.598928 3.63374 0.57045C3.16671 0.559059 2.72815 0.729925 2.39781 1.04888C2.06747 1.37352 1.88521 1.80638 1.88521 2.26772C1.88521 2.4272 1.75991 2.5525 1.60044 2.5525C1.44096 2.5525 1.31566 2.4272 1.31566 2.26772C1.31566 1.64691 1.56057 1.07166 2.00482 0.638796C2.44338 0.211631 3.03002 -0.0161906 3.64513 0.000896011C4.86398 0.0350692 5.84931 1.07166 5.84931 2.31328V20.5732C5.84931 21.5129 6.61821 22.2818 7.55797 22.2818H25.8179C25.9773 22.2818 26.1026 22.4071 26.1026 22.5666C26.1083 22.7204 25.9773 22.8514 25.8236 22.8514Z" fill="#424242"/>
<path d="M11.2031 27.7154C12.6249 27.7154 13.7775 26.5628 13.7775 25.141C13.7775 23.7192 12.6249 22.5666 11.2031 22.5666C9.78133 22.5666 8.62874 23.7192 8.62874 25.141C8.62874 26.5628 9.78133 27.7154 11.2031 27.7154Z" fill="#AAB1BA"/>
<path d="M11.2032 27.9996C9.62549 27.9996 8.34399 26.7181 8.34399 25.1404C8.34399 23.5627 9.62549 22.2812 11.2032 22.2812C12.7808 22.2812 14.0623 23.5627 14.0623 25.1404C14.0623 26.7181 12.7808 27.9996 11.2032 27.9996ZM11.2032 22.8508C9.93874 22.8508 8.91355 23.876 8.91355 25.1404C8.91355 26.4048 9.93874 27.43 11.2032 27.43C12.4676 27.43 13.4928 26.4048 13.4928 25.1404C13.4928 23.876 12.4676 22.8508 11.2032 22.8508Z" fill="#424242"/>
<path d="M21.2501 27.7154C22.6719 27.7154 23.8244 26.5628 23.8244 25.141C23.8244 23.7192 22.6719 22.5666 21.2501 22.5666C19.8283 22.5666 18.6757 23.7192 18.6757 25.141C18.6757 26.5628 19.8283 27.7154 21.2501 27.7154Z" fill="#AAB1BA"/>
<path d="M21.2501 27.9994C19.6724 27.9994 18.3909 26.7179 18.3909 25.1402C18.3909 23.5626 19.6724 22.2811 21.2501 22.2811C22.8277 22.2811 24.1092 23.5626 24.1092 25.1402C24.1092 26.7179 22.822 27.9994 21.2501 27.9994ZM21.2501 22.8506C19.9857 22.8506 18.9605 23.8758 18.9605 25.1402C18.9605 26.4047 19.9857 27.4298 21.2501 27.4298C22.5145 27.4298 23.5397 26.4047 23.5397 25.1402C23.5397 23.8758 22.5088 22.8506 21.2501 22.8506Z" fill="#424242"/>
<path d="M11.2031 25.4249C11.1291 25.4249 11.055 25.3965 11.0038 25.3395C10.9525 25.2883 10.9183 25.2142 10.9183 25.1402C10.9183 25.0661 10.9468 24.9921 11.0038 24.9408C11.055 24.8896 11.1291 24.8554 11.2031 24.8554C11.2772 24.8554 11.3512 24.8839 11.4025 24.9408C11.4537 24.9921 11.4879 25.0661 11.4879 25.1402C11.4879 25.2142 11.4594 25.2883 11.4025 25.3395C11.3512 25.3965 11.2772 25.4249 11.2031 25.4249Z" fill="#424242"/>
<path d="M21.2444 25.4249C21.1703 25.4249 21.0963 25.3965 21.045 25.3395C20.9938 25.2883 20.9596 25.2142 20.9596 25.1402C20.9596 25.0661 20.9881 24.9921 21.045 24.9408C21.0963 24.8896 21.1703 24.8554 21.2444 24.8554C21.3184 24.8554 21.3925 24.8839 21.4437 24.9408C21.495 24.9921 21.5291 25.0661 21.5291 25.1402C21.5291 25.2142 21.5007 25.2883 21.4437 25.3395C21.3982 25.3965 21.3241 25.4249 21.2444 25.4249Z" fill="#424242"/>
<path d="M21.2501 27.9993H2.91042C2.75094 27.9993 2.62564 27.874 2.62564 27.7145C2.62564 27.555 2.75094 27.4297 2.91042 27.4297H21.2444C21.4038 27.4297 21.5291 27.555 21.5291 27.7145C21.5348 27.874 21.4038 27.9993 21.2501 27.9993Z" fill="#424242"/>
<path d="M1.29289 27.9993H0.284777C0.125302 27.9993 0 27.874 0 27.7145C0 27.555 0.125302 27.4297 0.284777 27.4297H1.29289C1.45236 27.4297 1.57766 27.555 1.57766 27.7145C1.57766 27.874 1.45236 27.9993 1.29289 27.9993Z" fill="#424242"/>
<path d="M18.8181 8.98752H5.57024C5.41076 8.98752 5.28546 8.86222 5.28546 8.70275C5.28546 8.54327 5.41076 8.41797 5.57024 8.41797H18.8238C18.9832 8.41797 19.1085 8.54327 19.1085 8.70275C19.1085 8.86222 18.9775 8.98752 18.8181 8.98752Z" fill="#424242"/>
<path d="M23.4144 8.98752H21.0336C20.8742 8.98752 20.7489 8.86222 20.7489 8.70275C20.7489 8.54327 20.8742 8.41797 21.0336 8.41797H23.4144C23.5738 8.41797 23.6991 8.54327 23.6991 8.70275C23.6991 8.86222 23.5738 8.98752 23.4144 8.98752Z" fill="#424242"/>
<path d="M25.8236 8.98752H24.9066C24.7471 8.98752 24.6218 8.86222 24.6218 8.70275C24.6218 8.54327 24.7471 8.41797 24.9066 8.41797H25.8236C25.9831 8.41797 26.1084 8.54327 26.1084 8.70275C26.1084 8.86222 25.9774 8.98752 25.8236 8.98752Z" fill="#424242"/>
</svg>
