<svg width="28" height="28" viewBox="0 0 28 28" fill="none" xmlns="http://www.w3.org/2000/svg">
<path d="M27.3971 3.44519C27.2784 2.49728 26.8189 1.62493 26.1043 0.99097C25.3896 0.357013 24.4687 0.00477381 23.5134 0H4.35347C3.40054 0.00427911 2.48157 0.354318 1.76728 0.985085C1.05299 1.61585 0.59194 2.48446 0.469799 3.42953L0 7.29754C0.000622168 8.05646 0.162955 8.80654 0.476185 9.4978C0.789415 10.1891 1.24635 10.8057 1.81655 11.3065V24.085C1.81655 25.1233 2.22903 26.1191 2.96323 26.8533C3.69743 27.5875 4.69322 28 5.73154 28H22.1275C23.1658 28 24.1616 27.5875 24.8958 26.8533C25.63 26.1191 26.0425 25.1233 26.0425 24.085V11.3065C26.6141 10.8064 27.0725 10.1901 27.3871 9.49881C27.7017 8.8075 27.8653 8.05706 27.8669 7.29754L27.3971 3.44519ZM17.0772 26.434H10.8132V20.0447C10.8132 19.4217 11.0607 18.8243 11.5012 18.3838C11.9417 17.9432 12.5392 17.6957 13.1622 17.6957H14.7282C15.3512 17.6957 15.9487 17.9432 16.3892 18.3838C16.8297 18.8243 17.0772 19.4217 17.0772 20.0447V26.434ZM24.4843 24.085C24.4843 24.708 24.2369 25.3055 23.7963 25.746C23.3558 26.1865 22.7583 26.434 22.1353 26.434H18.6432V20.0447C18.6432 19.0064 18.2307 18.0106 17.4965 17.2764C16.7623 16.5422 15.7665 16.1298 14.7282 16.1298H13.1622C12.1239 16.1298 11.1281 16.5422 10.3939 17.2764C9.65967 18.0106 9.2472 19.0064 9.2472 20.0447V26.434H5.73154C5.10855 26.434 4.51108 26.1865 4.07055 25.746C3.63003 25.3055 3.38255 24.708 3.38255 24.085V12.2304C3.99871 12.4825 4.65865 12.6103 5.32438 12.6063C6.09311 12.6098 6.85326 12.4448 7.55132 12.1229C8.24938 11.8009 8.86835 11.3298 9.36465 10.7427C9.43538 10.6723 9.53109 10.6328 9.63087 10.6328C9.73065 10.6328 9.82637 10.6723 9.89709 10.7427C10.3934 11.3298 11.0124 11.8009 11.7104 12.1229C12.4085 12.4448 13.1686 12.6098 13.9374 12.6063C14.7094 12.6095 15.473 12.4445 16.1748 12.1227C16.8766 11.8009 17.4998 11.3299 18.0011 10.7427C18.0331 10.7082 18.0719 10.6807 18.115 10.6619C18.1581 10.643 18.2046 10.6332 18.2517 10.6331C18.3011 10.6328 18.3501 10.6424 18.3958 10.6612C18.4415 10.68 18.483 10.7077 18.5179 10.7427C19.0142 11.3298 19.6332 11.8009 20.3312 12.1229C21.0293 12.4448 21.7894 12.6098 22.5582 12.6063C23.2188 12.6103 23.8736 12.4825 24.4843 12.2304V24.085ZM22.5582 11.0403C22.0173 11.0428 21.4824 10.9279 20.9903 10.7035C20.4982 10.4791 20.0607 10.1505 19.708 9.74049C19.5317 9.52975 19.3114 9.36023 19.0624 9.24389C18.8135 9.12754 18.5421 9.0672 18.2673 9.06711H18.2517C17.978 9.06464 17.7072 9.12226 17.4582 9.2359C17.2093 9.34955 16.9883 9.51645 16.811 9.72483C16.4477 10.121 16.0061 10.4373 15.5141 10.6537C15.0221 10.8701 14.4905 10.9818 13.953 10.9818C13.4155 10.9818 12.8839 10.8701 12.3919 10.6537C11.8999 10.4373 11.4583 10.121 11.0951 9.72483C10.9129 9.51821 10.6887 9.35272 10.4376 9.23937C10.1865 9.12602 9.9142 9.0674 9.6387 9.0674C9.3632 9.0674 9.09086 9.12602 8.83976 9.23937C8.58866 9.35272 8.36455 9.51821 8.18233 9.72483C7.68807 10.3016 7.03099 10.7154 6.29732 10.912C5.56365 11.1086 4.78768 11.0787 4.07128 10.8264C3.35487 10.574 2.73151 10.111 2.28301 9.49796C1.83451 8.88496 1.58184 8.15068 1.55817 7.3915L2.02796 3.63311C2.10233 3.06514 2.3794 2.54316 2.80817 2.16332C3.23693 1.78347 3.7885 1.57134 4.3613 1.566H23.5134C24.0878 1.56567 24.6424 1.77583 25.0724 2.15673C25.5023 2.53762 25.7778 3.06286 25.8468 3.63311L26.3009 7.32886C26.2918 8.31715 25.8925 9.26181 25.19 9.95699C24.4875 10.6522 23.5387 11.0415 22.5503 11.0403H22.5582Z" fill="#424242"/>
</svg>
