<svg width="28" height="24" viewBox="0 0 28 24" fill="none" xmlns="http://www.w3.org/2000/svg">
<path fill-rule="evenodd" clip-rule="evenodd" d="M4.08277 7.32811C4.083 6.22091 4.36943 5.13256 4.91428 4.16869C5.45913 3.20482 6.24389 2.39817 7.1924 1.827C8.1409 1.25583 9.22095 0.939545 10.3277 0.908842C11.4345 0.87814 12.5304 1.13406 13.5091 1.65177C14.4879 2.16948 15.3161 2.93139 15.9136 3.86357C16.511 4.79575 16.8574 5.86654 16.919 6.97203C16.9806 8.07752 16.7554 9.18016 16.2652 10.173C15.775 11.1658 15.0366 12.015 14.1214 12.6382C16.0922 13.3611 17.8015 14.6571 19.0294 16.3595C20.2574 18.062 20.9477 20.093 21.0117 22.1911C21.0151 22.3061 20.9959 22.4207 20.955 22.5283C20.9142 22.6359 20.8526 22.7344 20.7737 22.8181C20.6144 22.9873 20.3944 23.0863 20.1621 23.0933C19.9298 23.1002 19.7042 23.0146 19.535 22.8553C19.3658 22.696 19.2669 22.476 19.2599 22.2437C19.1904 19.9681 18.2375 17.809 16.6033 16.224C14.9691 14.6389 12.7819 13.7525 10.5053 13.7525C8.22862 13.7525 6.04145 14.6389 4.40722 16.224C2.773 17.809 1.82015 19.9681 1.75061 22.2437C1.73891 22.4724 1.63812 22.6874 1.46981 22.8427C1.3015 22.998 1.07908 23.0812 0.850176 23.0744C0.621275 23.0677 0.404109 22.9716 0.245201 22.8067C0.0862935 22.6418 -0.0017166 22.4213 2.53744e-05 22.1923C0.0637322 20.094 0.753986 18.0627 1.98194 16.36C3.20989 14.6573 4.91933 13.3611 6.89023 12.6382C6.02453 12.0494 5.31608 11.2576 4.82672 10.332C4.33736 9.4064 4.08194 8.37511 4.08277 7.32811ZM10.5058 2.65678C9.26693 2.65678 8.07876 3.14894 7.20271 4.02498C6.32667 4.90103 5.83451 6.0892 5.83451 7.32811C5.83451 8.56702 6.32667 9.75519 7.20271 10.6312C8.07876 11.5073 9.26693 11.9994 10.5058 11.9994C11.7448 11.9994 12.9329 11.5073 13.809 10.6312C14.685 9.75519 15.1772 8.56702 15.1772 7.32811C15.1772 6.0892 14.685 4.90103 13.809 4.02498C12.9329 3.14894 11.7448 2.65678 10.5058 2.65678Z" fill="#424242"/>
<path d="M20.1874 7.32425C20.0146 7.32425 19.8464 7.33593 19.6806 7.35929C19.5648 7.38002 19.446 7.37722 19.3314 7.35105C19.2167 7.32489 19.1085 7.27589 19.0131 7.20699C18.9178 7.13809 18.8373 7.05069 18.7765 6.95001C18.7157 6.84933 18.6758 6.73743 18.6591 6.62099C18.6425 6.50455 18.6495 6.38596 18.6797 6.27228C18.7099 6.1586 18.7627 6.05216 18.8349 5.95932C18.9071 5.86648 18.9973 5.78914 19.1 5.73192C19.2028 5.67469 19.316 5.63874 19.433 5.62623C20.5945 5.4583 21.7789 5.68134 22.7997 6.26027C23.8205 6.8392 24.6199 7.74113 25.072 8.82413C25.5241 9.90713 25.6032 11.1097 25.297 12.2426C24.9907 13.3755 24.3164 14.3744 23.3803 15.0822C24.7564 15.6984 25.9249 16.6996 26.7446 17.9651C27.5644 19.2306 28.0005 20.7063 28.0002 22.2141C28.0002 22.4464 27.9079 22.6692 27.7437 22.8334C27.5794 22.9977 27.3566 23.09 27.1243 23.09C26.892 23.09 26.6693 22.9977 26.505 22.8334C26.3407 22.6692 26.2485 22.4464 26.2485 22.2141C26.2483 20.911 25.8284 19.6426 25.051 18.5967C24.2736 17.5509 23.18 16.7833 21.9322 16.4076L21.3085 16.2208V14.2635L21.7874 14.0194C22.4971 13.6599 23.065 13.0717 23.3993 12.3497C23.7336 11.6278 23.8149 10.8142 23.63 10.0403C23.4451 9.26652 23.0048 8.57758 22.3801 8.08478C21.7555 7.59197 20.983 7.32404 20.1874 7.32425Z" fill="#424242"/>
</svg>
