<svg width="28" height="28" viewBox="0 0 28 28" fill="none" xmlns="http://www.w3.org/2000/svg">
<path d="M28 24.5L22.75 28V26.25H14.4375L17.9375 22.75H22.75V21L28 24.5Z" fill="#424242"/>
<path d="M0 3.5L5.25 0V1.75H13.5625L10.0625 5.25H5.25V7L0 3.5Z" fill="#424242"/>
<path d="M17.045 0L0 17.045L10.955 28L28 10.955L17.045 0ZM2.4325 17.045L17.045 2.4325L25.5675 10.955L10.955 25.5675L2.4325 17.045Z" fill="#424242"/>
<path d="M7.29743 17.0464L6.07243 18.2714L9.72993 21.9289L10.9549 20.7039L12.2499 21.9114L17.0449 17.0464C16.2662 17.8251 15.1899 18.3081 13.9999 18.3081C11.6217 18.3081 9.69318 16.3796 9.69318 14.0014C9.69318 12.8114 10.1744 11.7351 10.9549 10.9564L6.08993 15.7514L7.29743 17.0464Z" fill="#424242"/>
<path d="M21.9102 9.74855L18.2527 6.09105L17.0277 7.31605L15.7502 6.09105L10.9552 10.956C11.7339 10.1773 12.8102 9.6943 14.0002 9.6943C16.3784 9.6943 18.3069 11.6228 18.3069 14.001C18.3069 15.191 17.8257 16.2673 17.0452 17.046L21.9102 12.251L20.6852 11.026L21.9102 9.74855Z" fill="#424242"/>
</svg>
