<svg width="28" height="28" viewBox="0 0 28 28" fill="none" xmlns="http://www.w3.org/2000/svg">
<path d="M3.11111 21.7778H5.44444C5.65072 21.7778 5.84855 21.6958 5.99442 21.55C6.14028 21.4041 6.22222 21.2063 6.22222 21V12.4444C6.22222 12.2382 6.14028 12.0403 5.99442 11.8945C5.84855 11.7486 5.65072 11.6667 5.44444 11.6667H4.66667V10.8889C4.66667 8.41354 5.65 6.03957 7.40034 4.28923C9.15068 2.53889 11.5246 1.55556 14 1.55556C16.4754 1.55556 18.8493 2.53889 20.5997 4.28923C22.35 6.03957 23.3333 8.41354 23.3333 10.8889V11.6667H22.5556C22.3493 11.6667 22.1514 11.7486 22.0056 11.8945C21.8597 12.0403 21.7778 12.2382 21.7778 12.4444V21C21.7778 21.2063 21.8597 21.4041 22.0056 21.55C22.1514 21.6958 22.3493 21.7778 22.5556 21.7778H23.2633C23.0797 22.8644 22.5174 23.8509 21.6761 24.5627C20.8347 25.2745 19.7687 25.6656 18.6667 25.6667H17.1111C17.0215 25.2275 16.7828 24.8327 16.4356 24.5493C16.0883 24.2658 15.6538 24.111 15.2056 24.1111H12.8722C12.3565 24.1111 11.8619 24.316 11.4973 24.6806C11.1326 25.0453 10.9278 25.5399 10.9278 26.0556C10.9278 26.5713 11.1326 27.0658 11.4973 27.4305C11.8619 27.7951 12.3565 28 12.8722 28H15.2056C15.5073 27.9994 15.8048 27.9289 16.0747 27.7939C16.3446 27.659 16.5796 27.4633 16.7611 27.2222H18.6667C20.1812 27.2208 21.6433 26.6671 22.7788 25.6648C23.9142 24.6625 24.6451 23.2805 24.8344 21.7778H24.8889C25.714 21.7778 26.5053 21.45 27.0888 20.8666C27.6722 20.2831 28 19.4918 28 18.6667V14.7778C28 13.9527 27.6722 13.1613 27.0888 12.5779C26.5053 11.9944 25.714 11.6667 24.8889 11.6667V10.8889C24.8889 8.00098 23.7417 5.23134 21.6996 3.18928C19.6575 1.14722 16.8879 0 14 0C11.1121 0 8.34246 1.14722 6.30039 3.18928C4.25833 5.23134 3.11111 8.00098 3.11111 10.8889V11.6667C2.28599 11.6667 1.49467 11.9944 0.911223 12.5779C0.327777 13.1613 0 13.9527 0 14.7778V18.6667C0 19.4918 0.327777 20.2831 0.911223 20.8666C1.49467 21.45 2.28599 21.7778 3.11111 21.7778ZM15.1667 26.4444H12.8333C12.7302 26.4444 12.6313 26.4035 12.5583 26.3305C12.4854 26.2576 12.4444 26.1587 12.4444 26.0556C12.4444 25.9524 12.4854 25.8535 12.5583 25.7806C12.6313 25.7076 12.7302 25.6667 12.8333 25.6667H15.1667C15.2698 25.6667 15.3687 25.7076 15.4417 25.7806C15.5146 25.8535 15.5556 25.9524 15.5556 26.0556C15.5556 26.1587 15.5146 26.2576 15.4417 26.3305C15.3687 26.4035 15.2698 26.4444 15.1667 26.4444ZM26.4444 14.7778V18.6667C26.4444 19.0792 26.2806 19.4749 25.9888 19.7666C25.6971 20.0583 25.3014 20.2222 24.8889 20.2222H23.3333V13.2222H24.8889C25.3014 13.2222 25.6971 13.3861 25.9888 13.6778C26.2806 13.9696 26.4444 14.3652 26.4444 14.7778ZM1.55556 14.7778C1.55556 14.3652 1.71944 13.9696 2.01117 13.6778C2.30289 13.3861 2.69855 13.2222 3.11111 13.2222H4.66667V20.2222H3.11111C2.69855 20.2222 2.30289 20.0583 2.01117 19.7666C1.71944 19.4749 1.55556 19.0792 1.55556 18.6667V14.7778Z" fill="#424242"/>
</svg>
